<svg xmlns="http://www.w3.org/2000/svg" width="1200" height="630" viewBox="0 0 1200 630" role="img" aria-labelledby="logo-title logo-desc">
	<title id="logo-title">MoSFA logo</title>
	<desc id="logo-desc">A geometric shrimp-folk mark beside the MoSFA wordmark.</desc>
	<rect width="1200" height="630" fill="#f7f1e7"/>
	<g transform="translate(120 150) scale(2.1)" fill="#1f2422">
		<path d="M14 28h62v47c-12 0-25-6-39-18L14 28Z"/>
		<path d="M84 29c31 3 55 27 61 60h-39c-4-15-11-27-22-38V29Z"/>
		<path d="M100 58c14 6 25 17 31 31h-29L86 72l14-14Z"/>
		<path d="M82 84h29v31H82z"/>
		<path d="M118 98h27c-2 22-14 41-33 51V98Z"/>
		<path d="M82 123h26v27c-11-1-20-6-26-13v-14Z"/>
		<path d="M42 124h33v28c-15-2-27-12-33-28Z"/>
		<path d="M18 111c17-6 36-3 52 8l-20 21c-14-5-25-15-32-29Z"/>
		<circle cx="46" cy="46" r="6.5" fill="#f7f1e7"/>
	</g>
	<g transform="translate(500 230)">
		<text x="0" y="72" fill="#201b16" font-family="Avenir, Avenir Next, Inter, Segoe UI, Arial, sans-serif" font-size="116" font-weight="400">MoSFA</text>
		<rect x="4" y="105" width="486" height="6" fill="#b89a62"/>
		<text x="4" y="154" fill="#564a40" font-family="Avenir, Avenir Next, Inter, Segoe UI, Arial, sans-serif" font-size="25" font-weight="500" letter-spacing="1.3">MUSEUM OF SHRIMP-FOLK ART</text>
	</g>
</svg>
