<svg xmlns="http://www.w3.org/2000/svg" viewBox="0 0 64 64" role="img" aria-labelledby="favicon-title">
	<title id="favicon-title">MoSFA geometric shrimp mark</title>
	<rect width="64" height="64" rx="13" fill="#f7f1e7"/>
	<g transform="translate(4 4) scale(.35)" fill="#1f2422">
		<path d="M14 28h62v47c-12 0-25-6-39-18L14 28Z"/>
		<path d="M84 29c31 3 55 27 61 60h-39c-4-15-11-27-22-38V29Z"/>
		<path d="M100 58c14 6 25 17 31 31h-29L86 72l14-14Z"/>
		<path d="M82 84h29v31H82z"/>
		<path d="M118 98h27c-2 22-14 41-33 51V98Z"/>
		<path d="M82 123h26v27c-11-1-20-6-26-13v-14Z"/>
		<path d="M42 124h33v28c-15-2-27-12-33-28Z"/>
		<path d="M18 111c17-6 36-3 52 8l-20 21c-14-5-25-15-32-29Z"/>
		<circle cx="46" cy="46" r="6.5" fill="#f7f1e7"/>
	</g>
</svg>
