<svg xmlns="http://www.w3.org/2000/svg" viewBox="0 0 64 64" role="img" aria-labelledby="favicon-title">
	<title id="favicon-title">MOSFA shrimp mark</title>
	<rect width="64" height="64" rx="13" fill="#1f2422"/>
	<path d="M47.6 22.3C39.7 13.8 25.4 13 17.9 21.1 9.8 29.7 14.4 43.9 26.5 47c8.7 2.2 18.2-1.2 22.7-8.1 1.4-2.2 1-4.9-.9-6.1-2-1.3-4.2-.4-5.9 1.6-3.1 3.6-8.5 5.3-13.1 4.1-4.6-1.2-7.3-4.8-6.4-8.6.9-3.9 5.1-6.5 10.1-6.2 4.2.3 8.2 2.3 11.7 5.9l5.6-4.7-2.7-2.6Z" fill="#f7f1e7"/>
	<path d="M45.3 21.2 58 17.6l-7.8 9.8Z" fill="#b85d49"/>
	<path d="M24.9 23.7c2.3 5.2 2 10.7-.9 16.4M33 22.8c.5 6.2-1.7 11.7-6.5 16.4M40.5 25.8c-1.2 4.6-4 8.5-8.2 11.7" fill="none" stroke="#b85d49" stroke-width="2.4" stroke-linecap="round"/>
	<path d="M48.6 20.2c3.4-5.3 7.6-8.2 12.8-8.6M49.7 24.6c3.9-2.3 7.9-2.8 12.1-1.6" fill="none" stroke="#b89a62" stroke-width="2.2" stroke-linecap="round"/>
	<circle cx="46.8" cy="20.1" r="2.1" fill="#1f2422"/>
</svg>
