<svg xmlns="http://www.w3.org/2000/svg" width="920" height="240" viewBox="0 0 920 240" role="img" aria-labelledby="logo-title logo-desc">
	<title id="logo-title">MOSFA logo</title>
	<desc id="logo-desc">A museum seal containing a stylized shrimp beside the MOSFA wordmark.</desc>
	<style>
		.logo-ink { fill: #1f2422; }
		.logo-soft { fill: #5b554b; }
		.logo-ivory { fill: #f7f1e7; }
		.logo-green { fill: #244f49; }
		.logo-coral { fill: #b85d49; }
		.logo-gold { fill: #b89a62; }
		.logo-rule { stroke: #b89a62; }
		.logo-line { stroke: #1f2422; }
		.logo-shrimp { stroke: #f7f1e7; }
		text { paint-order: stroke; }
	</style>

	<g transform="translate(32 28)">
		<path class="logo-ivory logo-line" stroke-width="5" d="M84 4c42 0 76 34 76 76v58c0 9.9-8.1 18-18 18H26c-9.9 0-18-8.1-18-18V80C8 38 42 4 84 4Z"/>
		<path fill="none" class="logo-rule" stroke-width="2.4" d="M84 18c34.3 0 62 27.7 62 62v49c0 6.6-5.4 12-12 12H34c-6.6 0-12-5.4-12-12V80c0-34.3 27.7-62 62-62Z"/>
		<path class="logo-green" d="M34 121h100v8H34z"/>
		<path class="logo-gold" d="M44 137h80v7H44z"/>
		<path class="logo-gold" d="M48 40h72v7H48z"/>
		<path class="logo-gold" d="M56 47h10v74H56zM79 47h10v74H79zM102 47h10v74h-10z"/>

		<g>
			<path class="logo-coral" d="M119.4 69.7C108 50.5 82.2 42.3 60.8 51.4 39.5 60.4 28.5 82.8 36 101.9c7 17.9 28.5 27.9 50.8 23.5 16.2-3.2 29.5-13.3 34.1-25.8 1.4-3.8-.1-7.9-3.5-9.5-3.5-1.7-7.2-.3-9.7 3.1-5.5 7.7-14.9 12.9-25.7 14.3-12.3 1.6-23.3-3.6-26.7-12.4-3.2-8.4 1.8-18.2 12.1-23.7 11.4-6 26.4-4.8 38.1 3.2l13.8 9.5 12.9-9.2-12.8-5.2Z"/>
			<path fill="none" class="logo-shrimp" stroke-width="4.8" stroke-linecap="round" stroke-linejoin="round" d="M112.9 72.2C99.4 60.5 78.4 58.1 63.1 67.1 48.7 75.6 45.2 91.8 55.5 101.2c9.2 8.4 27.4 8.8 40.8.9"/>
			<path fill="none" class="logo-ink" stroke="#1f2422" stroke-width="2.6" stroke-linecap="round" d="M70 64.7c3.2 9.7 3 20.3-.4 31.7M86.5 62.5c.6 12.2-2.7 24.2-9.8 35.9M101.1 68.4c-2.1 9.4-7.6 18.6-16.3 27.8"/>
			<path class="logo-coral" d="M120.5 65.5 147.8 56l-16 22.1Z"/>
			<path fill="none" class="logo-ink" stroke="#1f2422" stroke-width="3.2" stroke-linecap="round" stroke-linejoin="round" d="M124.8 61.2c8.4-14.7 20.5-22.3 36.5-23M126.9 69.5c11.9-7.5 25.1-8.8 39.3-3.8"/>
			<circle class="logo-ink" cx="119" cy="60" r="3.5"/>
		</g>
	</g>

	<g transform="translate(232 62)">
		<text class="logo-ink" x="0" y="62" font-family="Cormorant Garamond, Georgia, Times New Roman, serif" font-size="78" font-weight="600" letter-spacing="8">MOSFA</text>
		<line class="logo-rule" x1="2" y1="82" x2="610" y2="82" stroke-width="3"/>
		<text class="logo-soft" x="3" y="116" font-family="Inter, Avenir Next, Segoe UI, Arial, sans-serif" font-size="20" font-weight="700" letter-spacing="3.4">MUSEUM OF SHRIMP-FOLK ART</text>
		<text class="logo-soft" x="4" y="148" font-family="Inter, Avenir Next, Segoe UI, Arial, sans-serif" font-size="17" letter-spacing=".7">Curating the visual culture of shrimp-folk civilization</text>
	</g>
</svg>
